<svg width="144" height="144" viewBox="0 0 512 512" fill="none" xmlns="http://www.w3.org/2000/svg">
  <!-- Background -->
  <rect width="512" height="512" rx="64" fill="#1f2937"/>
  
  <!-- Main Icon - Restaurant Table -->
  <g transform="translate(128, 128)">
    <!-- Table Top -->
    <ellipse cx="128" cy="96" rx="120" ry="80" fill="#f59e0b" stroke="#ffffff" stroke-width="4"/>
    
    <!-- Table Base -->
    <rect x="116" y="96" width="24" height="120" fill="#d97706" stroke="#ffffff" stroke-width="2"/>
    
    <!-- Chairs -->
    <circle cx="64" cy="64" r="24" fill="#ef4444" stroke="#ffffff" stroke-width="2"/>
    <circle cx="192" cy="64" r="24" fill="#ef4444" stroke="#ffffff" stroke-width="2"/>
    <circle cx="64" cy="128" r="24" fill="#ef4444" stroke="#ffffff" stroke-width="2"/>
    <circle cx="192" cy="128" r="24" fill="#ef4444" stroke="#ffffff" stroke-width="2"/>
    
    <!-- Calendar Icon Overlay -->
    <g transform="translate(160, 32)">
      <rect x="0" y="0" width="32" height="36" rx="4" fill="#ffffff" stroke="#1f2937" stroke-width="2"/>
      <rect x="0" y="8" width="32" height="2" fill="#1f2937"/>
      <circle cx="8" cy="4" r="1" fill="#1f2937"/>
      <circle cx="24" cy="4" r="1" fill="#1f2937"/>
      <rect x="4" y="16" width="4" height="4" fill="#10b981"/>
      <rect x="12" y="16" width="4" height="4" fill="#6b7280"/>
      <rect x="20" y="16" width="4" height="4" fill="#6b7280"/>
      <rect x="4" y="24" width="4" height="4" fill="#6b7280"/>
      <rect x="12" y="24" width="4" height="4" fill="#ef4444"/>
    </g>
  </g>
  
  <!-- App Name -->
  <text x="256" y="420" font-family="Arial, sans-serif" font-size="36" font-weight="bold" text-anchor="middle" fill="#ffffff">ReadyTable</text>
</svg>